<svg width="116" height="37" viewBox="0 0 116 37" xmlns="http://www.w3.org/2000/svg"><path d="M60.808 9.046a2.422 2.422 0 0 1-4.12 1.679c-1.334-1.933-.102-4.02 1.78-4.02a2.36 2.36 0 0 1 2.34 2.341zm-9.656 4.721v.58a4.498 4.498 0 0 0-3.5-1.445 6.899 6.899 0 0 0-6.99 7.123 6.899 6.899 0 0 0 6.99 7.123 4.375 4.375 0 0 0 3.5-1.475v.61a.488.488 0 0 0 .509.509h2.92V13.228h-2.93a.519.519 0 0 0-.51.509l.01.03h.001zm0 8.69a3.582 3.582 0 0 1-2.92 1.476 3.775 3.775 0 0 1-4.07-3.898 3.775 3.775 0 0 1 4.07-3.897c1.15.009 2.23.555 2.92 1.476v4.843zm5.586-9.158h3.46v13.513h-3.46V13.228v.071zm51.681-.356a4.508 4.508 0 0 0-3.5 1.445V6.736h-3.46v20.076h2.92a.519.519 0 0 0 .51-.508v-.611a4.467 4.467 0 0 0 3.5 1.475 6.92 6.92 0 0 0 6.99-7.122 6.91 6.91 0 0 0-6.96-7.123v.02zm-.56 10.949a3.53 3.53 0 0 1-2.94-1.506v-4.793a3.907 3.907 0 0 1 2.94-1.485 3.775 3.775 0 0 1 4.07 3.897 3.775 3.775 0 0 1-4.07 3.897v-.01zm-8.14-5.088v8.07h-3.46V19.17c0-2.24-.722-3.135-2.665-3.135a3.867 3.867 0 0 0-2.809 1.333v9.443h-3.46V13.228h2.738a.52.52 0 0 1 .509.509v.58a4.966 4.966 0 0 1 3.673-1.445 5.607 5.607 0 0 1 3.724 1.374c1.221 1.017 1.69 2.31 1.69 4.579l.06-.02v-.001zm-24.36-4.457v-7.61H71.9v20.075h2.921a.519.519 0 0 0 .509-.508v-.611a4.467 4.467 0 0 0 3.5 1.475 6.92 6.92 0 0 0 6.99-7.122 6.868 6.868 0 0 0-6.96-7.123 4.42 4.42 0 0 0-3.501 1.424zm2.92 9.545a3.53 3.53 0 0 1-2.91-1.506v-4.793a3.907 3.907 0 0 1 2.92-1.475 3.775 3.775 0 0 1 4.071 3.897 3.775 3.775 0 0 1-4.07 3.897l-.01-.02h-.001zm-9.37-10.99a5.525 5.525 0 0 1 1.586.184v3.195s-2.88-1.018-4.68 1.078v9.484h-3.46V13.228h2.92a.52.52 0 0 1 .51.509v.58a4.732 4.732 0 0 1 3.133-1.445l-.01.03h.001zm-35.93 12.69c-.184-.428-.357-.906-.54-1.303-.285-.651-.58-1.262-.824-1.842-2.523-5.434-5.159-10.918-8.008-16.342l-.112-.213a87.89 87.89 0 0 1-.865-1.69c-.345-.7-.768-1.358-1.262-1.963A5.82 5.82 0 0 0 16.758 0a6.105 6.105 0 0 0-4.609 2.167 12.434 12.434 0 0 0-1.302 1.985 64.7 64.7 0 0 1-.865 1.689l-.102.264c-2.757 5.353-5.484 10.837-7.967 16.281v.071c-.254.58-.54 1.19-.824 1.842-.183.393-.363.828-.54 1.302A8.14 8.14 0 0 0 .112 29.5a7.662 7.662 0 0 0 4.68 5.983c.924.39 1.918.586 2.921.58a8.14 8.14 0 0 0 .936-.071 9.524 9.524 0 0 0 3.562-1.283c1.68-1 3.188-2.265 4.467-3.744a18.936 18.936 0 0 0 4.467 3.744 9.514 9.514 0 0 0 4.538 1.293 7.286 7.286 0 0 0 2.92-.58 7.642 7.642 0 0 0 4.68-5.983 6.807 6.807 0 0 0-.325-3.857l.02.01h.001zm-16.25 1.882a17.776 17.776 0 0 1-3.643-6.706 5.81 5.81 0 0 1-.112-2.198 3.49 3.49 0 0 1 .58-1.516 3.826 3.826 0 0 1 3.174-1.587 3.694 3.694 0 0 1 3.175 1.587c.31.453.509.972.58 1.516a5.79 5.79 0 0 1-.132 2.188 18.316 18.316 0 0 1-3.623 6.716h.001zm14.377 1.689a5.352 5.352 0 0 1-3.276 4.212 5.454 5.454 0 0 1-2.737.357 7.123 7.123 0 0 1-2.707-.937 16.84 16.84 0 0 1-4.07-3.5 20.35 20.35 0 0 0 4.284-7.927 9.03 9.03 0 0 0 .183-3.052 5.85 5.85 0 0 0-1.018-2.452 6.105 6.105 0 0 0-5.087-2.555 6.166 6.166 0 0 0-5.088 2.555 5.85 5.85 0 0 0-1.018 2.452 7.49 7.49 0 0 0 .183 3.052 20.91 20.91 0 0 0 4.508 7.968 16.19 16.19 0 0 1-4.07 3.5 7.123 7.123 0 0 1-2.737.936 5.77 5.77 0 0 1-2.737-.356 5.352 5.352 0 0 1-3.277-4.212 5.963 5.963 0 0 1 .326-2.809c.112-.356.285-.722.468-1.15.183-.427.54-1.19.824-1.8v-.072a349.19 349.19 0 0 1 7.876-16.25l.112-.214c.285-.54.58-1.12.865-1.658a7.897 7.897 0 0 1 1.017-1.588 3.785 3.785 0 0 1 5.77 0c.4.487.742 1.02 1.017 1.588.285.539.58 1.119.865 1.658l.112.214c2.727 5.423 5.373 10.898 7.815 16.28.285.58.54 1.222.824 1.802.285.58.356.793.468 1.15.298.893.385 1.844.254 2.777l.051.03v.001z" fill="#AABBC1" fill-rule="evenodd"/></svg>
