<svg xmlns="http://www.w3.org/2000/svg" width="136" height="25" viewBox="0 0 136 25"><path d="M128.338 20.674c0-1.859 1.717-3.366 3.832-3.366 2.115 0 3.83 1.507 3.83 3.366 0 1.858-1.715 3.364-3.83 3.364s-3.832-1.506-3.832-3.364M14.11 12.209c0-2.29-.45-3.99-1.35-5.096-.902-1.106-2.266-1.658-4.101-1.658H6.707v14.004H8.2c2.038 0 3.532-.595 4.483-1.787.95-1.19 1.426-3.012 1.426-5.463m6.961-.239c0 4.172-1.14 7.387-3.42 9.644C15.368 23.87 12.162 25 8.03 25H0V0h8.59c3.985 0 7.062 1.026 9.23 3.078 2.167 2.052 3.25 5.015 3.25 8.892M42.14 25h6.705V0h-6.704zm15.01-9.656c0 1.595.209 2.81.627 3.647.419.836 1.12 1.254 2.107 1.254.976 0 1.666-.418 2.068-1.254.402-.836.602-2.052.602-3.647 0-1.585-.203-2.782-.61-3.59-.409-.809-1.105-1.214-2.093-1.214-.965 0-1.655.403-2.074 1.205-.418.804-.628 2.003-.628 3.6m11.809 0c0 3.037-.8 5.407-2.405 7.105C64.95 24.15 62.705 25 59.82 25c-2.767 0-4.97-.87-6.605-2.607-1.636-1.738-2.454-4.087-2.454-7.049 0-3.028.8-5.38 2.405-7.058 1.605-1.678 3.854-2.517 6.751-2.517 1.79 0 3.374.389 4.746 1.165 1.373.777 2.433 1.888 3.177 3.337.746 1.446 1.118 3.138 1.118 5.073m2.873 8.694h6.704V5.77h-6.704zm0-20.192h6.704V0h-6.704zM90.79 19.882c.858 0 1.878-.217 3.07-.648v4.723a12.3 12.3 0 0 1-2.444.802c-.773.161-1.681.241-2.72.241-2.131 0-3.668-.534-4.611-1.6-.94-1.065-1.411-2.701-1.411-4.91v-7.736h-2.223V5.902h2.223V1.109L89.071 0v5.902h4.05v4.852h-4.05v7.305c0 1.215.574 1.823 1.72 1.823m14.366 0c.857 0 1.878-.217 3.068-.648v4.723c-.854.374-1.67.643-2.443.802-.774.161-1.678.241-2.72.241-2.13 0-3.667-.534-4.608-1.6-.942-1.065-1.413-2.701-1.413-4.91v-7.736h-2.224V5.902h2.224V1.036L103.437 0v5.902h4.052v4.852h-4.052v7.305c0 1.215.574 1.823 1.72 1.823m10.377-6.8c.085-1.017.37-1.763.859-2.239.49-.475 1.095-.713 1.82-.713.79 0 1.417.267 1.883.805.469.534.713 1.25.732 2.147h-5.294zm8.69-5.123c-1.464-1.46-3.543-2.19-6.23-2.19-2.827 0-5.001.84-6.526 2.517-1.523 1.678-2.285 4.085-2.285 7.222 0 3.037.824 5.38 2.467 7.024 1.644 1.645 3.953 2.468 6.927 2.468 1.428 0 2.656-.099 3.686-.296a10.557 10.557 0 0 0 2.976-1.056l-.947-4.186c-.698.29-1.363.513-1.99.66-.908.214-1.903.32-2.986.32-1.187 0-2.125-.294-2.812-.884-.687-.59-1.054-1.406-1.096-2.444h11.015v-2.852c0-2.744-.733-4.845-2.199-6.303zM28.38 13.082c.084-1.017.37-1.763.858-2.239.49-.475 1.095-.713 1.82-.713.788 0 1.416.267 1.883.805.469.534.712 1.25.733 2.147H28.38zm8.69-5.123c-1.465-1.46-3.542-2.19-6.232-2.19-2.827 0-5 .84-6.524 2.517-1.523 1.678-2.286 4.085-2.286 7.222 0 3.037.823 5.38 2.468 7.024C26.14 24.177 28.448 25 31.422 25c1.428 0 2.656-.099 3.686-.296a10.573 10.573 0 0 0 2.977-1.056l-.948-4.186c-.698.29-1.363.513-1.99.66-.909.214-1.902.32-2.986.32-1.186 0-2.125-.294-2.812-.884-.688-.59-1.054-1.406-1.096-2.444h11.015v-2.852c0-2.744-.733-4.845-2.198-6.303z" fill="#AABBC1"/></svg>