<svg xmlns="http://www.w3.org/2000/svg" width="87" height="58" viewBox="0 0 87 58"><g fill="#AABBC1"><path d="M25.632 24.54v14.17H21.16V20.9l9.233.01c3.922 0 5.258 2.788 5.258 5.321V38.71h-4.464V26.255c0-1.061-.545-1.714-1.859-1.714h-3.696zm30.41-.212c-1.528 0-2.71.792-3.205 1.868-.293.646-.393 1.141-.428 1.932h6.88c-.088-1.932-.956-3.8-3.246-3.8zm-3.633 6.87c0 2.306 1.422 4.004 3.961 4.004 1.975 0 2.957-.552 4.1-1.698l2.762 2.66c-1.769 1.76-3.625 2.83-6.895 2.83-4.28 0-8.378-2.354-8.378-9.215 0-5.862 3.577-9.18 8.278-9.18 4.764 0 7.517 3.885 7.517 8.974v1.624H52.409zm-8.225 7.488c-3.643 0-5.19-2.557-5.19-5.083V16.048h4.466V20.9h3.366v3.64H43.46v8.78c0 1.035.484 1.61 1.55 1.61h1.816v3.756h-2.642zM17.18 18.44h-4.503v-4.313h4.503v4.313zm.011 20.457c-3.372-.327-4.519-2.39-4.519-4.77l.005-13.226h4.514v17.996zm53.669-.38c-3.365-.328-4.507-2.387-4.507-4.764v-20.24h4.507v25.003zm15.754-22.08C82.531-3.643 43.88-4.914 18.965 10.38v1.689C43.853-.83 79.152-.754 82.368 17.741c1.076 6.116-2.342 12.492-8.445 16.157v4.795c7.346-2.71 14.88-11.499 12.692-22.256zM41.327 51.57c-17.194 1.603-35.112-.914-37.62-14.464-1.226-6.68 1.791-13.76 5.794-18.158v-2.352C2.295 22.968-1.616 31.036.636 40.568c2.873 12.224 18.251 19.151 41.723 16.85 9.287-.913 21.442-3.925 29.892-8.602V42.17c-7.667 4.605-20.356 8.412-30.924 9.4z"/><path d="M76.07 14.856c0-.22-.128-.29-.42-.29h-.28v.623c.04 0 .245.008.28.008.292 0 .42-.099.42-.305v-.036zm.44 1.546h-.334a.08.08 0 0 1-.07-.044l-.455-.779c-.008-.015-.048-.034-.063-.034h-.205v.771c0 .042-.028.086-.082.086H75c-.037 0-.075-.044-.075-.086v-1.952c0-.113.044-.16.138-.175.107-.014.397-.024.553-.024.554 0 .89.165.89.69v.037c0 .325-.161.497-.41.58l.472.806c.003.016.014.038.014.057 0 .032-.019.067-.072.067zm-.793-2.589c-.821 0-1.486.684-1.486 1.507 0 .825.665 1.498 1.486 1.498.817 0 1.488-.673 1.488-1.498 0-.823-.671-1.507-1.488-1.507zm0 3.315a1.798 1.798 0 0 1-1.794-1.808 1.8 1.8 0 0 1 1.794-1.808 1.809 1.809 0 0 1 0 3.617z"/></g></svg>