<svg width="105" height="37" viewBox="0 0 105 37" xmlns="http://www.w3.org/2000/svg"><path d="M5.962 13.492a10.448 10.448 0 0 1 1.74-1.47 3.653 3.653 0 0 1 1.999-.505c1.26 0 2.158.43 2.695 1.288.538.86.805 1.993.801 3.399v9.16a.713.713 0 0 1-.58.734 8.253 8.253 0 0 1-1.564.246v.399h7.41v-.326a17.02 17.02 0 0 1-.71-.09 5.584 5.584 0 0 1-.708-.145 1.637 1.637 0 0 1-.564-.272.54.54 0 0 1-.245-.436V14.793c0-1.647-.376-2.991-1.127-4.034-.752-1.042-1.827-1.562-3.225-1.56a4.83 4.83 0 0 0-1.89.382 7.581 7.581 0 0 0-1.663.955c-.5.38-.956.812-1.362 1.29-.36.42-.693.862-.998 1.325l-.01.34.001.001zm-.912.668v11.272c.024.197.11.382.245.527.124.114.274.198.436.245.19.051.385.082.581.09.232.014.463.044.691.091v.363H0v-.363a4.778 4.778 0 0 0 1.436-.326.865.865 0 0 0 .6-.835V12.727a1.308 1.308 0 0 0-.056-.436.83.83 0 0 0-.309-.333L.91 11.54a9.542 9.542 0 0 0-.872-.419v-.218l4.76-1.715h.246l.007 4.971-.001.001zm87.158-.668a10.497 10.497 0 0 1 1.74-1.47 3.656 3.656 0 0 1 1.997-.505c1.261 0 2.16.43 2.696 1.288.535.86.802 1.993.798 3.399v9.16a.713.713 0 0 1-.58.734 8.267 8.267 0 0 1-1.564.246v.399h7.42v-.326a23.641 23.641 0 0 1-.708-.09 5.55 5.55 0 0 1-.708-.145 1.647 1.647 0 0 1-.564-.272.537.537 0 0 1-.245-.436V14.793c0-1.647-.376-2.991-1.127-4.034-.752-1.042-1.83-1.563-3.235-1.563-.65 0-1.293.13-1.891.382a7.596 7.596 0 0 0-1.666.958c-.5.38-.959.811-1.365 1.29-.36.42-.693.863-.998 1.325v.341zm-.911.668v11.272c.023.197.11.382.245.527.124.114.274.198.436.245.19.051.386.082.583.09.232.014.463.044.691.091v.363h-7v-.363a4.776 4.776 0 0 0 1.436-.326.865.865 0 0 0 .6-.835V12.727a1.343 1.343 0 0 0-.054-.436.838.838 0 0 0-.309-.328l-.762-.417a9.598 9.598 0 0 0-.872-.419v-.223l4.76-1.715h.246v4.971zM19.37 26.75v-.37a17.9 17.9 0 0 0 .887-.093c.27-.031.537-.094.794-.186.219-.076.42-.195.593-.35a.735.735 0 0 0 .245-.557V12.51a2.132 2.132 0 0 0-.054-.517.735.735 0 0 0-.314-.407 6.484 6.484 0 0 0-.794-.443 10.02 10.02 0 0 0-.98-.407v-.223l5.001-1.63h.22v16.535a.806.806 0 0 0 .315.537c.172.119.367.202.573.245.237.052.478.083.72.093.255.011.508.043.757.093v.37l-7.963-.005v-.001zm5.27-21.54a1.94 1.94 0 0 1-2.739-.02 1.862 1.862 0 0 1-.583-1.365 1.818 1.818 0 0 1 .566-1.375 2.031 2.031 0 0 1 2.757 0c.369.357.571.852.556 1.365a1.884 1.884 0 0 1-.556 1.385v.01h-.001zm48.118 9.262a6.78 6.78 0 0 1 .406-1.275c.24-.587.557-1.141.941-1.646a6.912 6.912 0 0 1 1.444-1.424 3.07 3.07 0 0 1 1.867-.61c1.058 0 1.902.327 2.531.98a3.27 3.27 0 0 1 .94 2.35c.015.265-.029.53-.129.777a2.747 2.747 0 0 1-.387.551c-.273.104-.56.166-.85.184-.327.024-.672.037-1.034.037-.569 0-1.086 0-1.554.02l-1.348.036c-.43 0-.69.017-1.134.017l-.167.505h10.272a6.885 6.885 0 0 0-.703-2.695 5.834 5.834 0 0 0-1.522-1.904 6.273 6.273 0 0 0-2.22-1.127 9.728 9.728 0 0 0-2.72-.37 6.932 6.932 0 0 0-3.24.757 7.961 7.961 0 0 0-2.479 1.98 9.311 9.311 0 0 0-2.13 5.841 11.15 11.15 0 0 0 .594 3.644 9.115 9.115 0 0 0 1.683 2.997 7.488 7.488 0 0 0 2.644 1.98c1.08.475 2.25.714 3.43.7a6.665 6.665 0 0 0 2.762-.558 7.412 7.412 0 0 0 2.127-1.407 6.954 6.954 0 0 0 1.406-1.867c.31-.576.534-1.193.667-1.833l-.297-.073a4.447 4.447 0 0 1-1.83 2.31 5.611 5.611 0 0 1-3.237.944 6.79 6.79 0 0 1-2.997-.63 6.006 6.006 0 0 1-2.146-1.715 7.841 7.841 0 0 1-1.296-2.514 9.973 9.973 0 0 1-.444-2.978c0-.272.012-.536.04-.793a6.62 6.62 0 0 0 .036-.684l.074-.507zM31.7 14.469a6.61 6.61 0 0 1 .4-1.274c.24-.588.556-1.141.94-1.647a6.903 6.903 0 0 1 1.444-1.423 3.07 3.07 0 0 1 1.867-.613c1.058 0 1.902.327 2.53.98.618.625.958 1.472.944 2.35.015.266-.03.53-.13.777-.105.2-.235.387-.387.556a2.94 2.94 0 0 1-.853.184c-.326.024-.67.037-1.034.037-.568 0-1.086.006-1.553.02l-1.348.036c-.431 0-.69.017-1.134.017l-.164.505h10.271a6.917 6.917 0 0 0-.7-2.695 5.84 5.84 0 0 0-1.537-1.904 6.278 6.278 0 0 0-2.22-1.127 9.71 9.71 0 0 0-2.72-.37 6.932 6.932 0 0 0-3.237.754 7.959 7.959 0 0 0-2.477 1.98 9.311 9.311 0 0 0-2.127 5.842c-.006 1.239.194 2.47.593 3.643a9.113 9.113 0 0 0 1.684 2.995 7.486 7.486 0 0 0 2.644 1.98c1.08.475 2.25.714 3.43.7a6.667 6.667 0 0 0 2.771-.553 7.398 7.398 0 0 0 2.127-1.407 6.95 6.95 0 0 0 1.402-1.865c.31-.575.534-1.193.666-1.832l-.296-.074a4.445 4.445 0 0 1-1.83 2.31 5.611 5.611 0 0 1-3.237.944 6.792 6.792 0 0 1-2.997-.63 6.016 6.016 0 0 1-2.147-1.715 7.841 7.841 0 0 1-1.296-2.514 9.97 9.97 0 0 1-.407-3.773c.025-.26.037-.49.037-.684l.08-.51h.001zM44.486 26.75v-.409c1.133-.073 1.885-.19 2.254-.35a.845.845 0 0 0 .556-.833V3.886a1.343 1.343 0 0 0-.054-.456.848.848 0 0 0-.313-.333c-.336-.187-.67-.378-1-.573a9.886 9.886 0 0 0-1.11-.564v-.22L50.112 0h.26v25.344c-.016.2.044.398.166.556a.929.929 0 0 0 .49.26 4.9 4.9 0 0 0 .853.09c.345.013.753.045 1.225.094v.409l-8.62-.003zm22.234-2.957a4.9 4.9 0 0 1-1.534 1.715 6.462 6.462 0 0 1-2.205.963c-.854.201-1.73.3-2.607.296a15.16 15.16 0 0 1-3.06-.303c-.92-.178-1.816-.46-2.672-.838V20.74h.272c.212.635.458 1.26.735 1.87.29.642.651 1.25 1.076 1.812a5.39 5.39 0 0 0 1.522 1.37c.642.37 1.374.556 2.114.537 1.186 0 2.132-.34 2.838-1.017.706-.678 1.058-1.72 1.056-3.127a2.661 2.661 0 0 0-.72-1.906 3.675 3.675 0 0 0-1.983-1.017 39.733 39.733 0 0 1-1.926-.407 16.85 16.85 0 0 1-1.666-.49 4.614 4.614 0 0 1-2.279-1.664 4.683 4.683 0 0 1-.87-2.85 4.41 4.41 0 0 1 .49-2.072 5.057 5.057 0 0 1 1.302-1.586 5.807 5.807 0 0 1 1.889-1.017c.743-.24 1.52-.36 2.3-.355.92-.012 1.839.08 2.738.277.766.178 1.52.407 2.256.684l.444 4.59-.296.073a36.26 36.26 0 0 0-1.037-2.054 8.282 8.282 0 0 0-1.147-1.63c-.4-.441-.884-.8-1.423-1.053a4.31 4.31 0 0 0-1.83-.37c-.424 0-.844.076-1.24.223a3.163 3.163 0 0 0-1.074.647 3.35 3.35 0 0 0-.76 1.073 3.57 3.57 0 0 0-.296 1.5c0 .913.259 1.567.777 1.96a5.303 5.303 0 0 0 1.96.887c.542.125 1.135.245 1.774.39.64.144 1.196.264 1.664.387a5.481 5.481 0 0 1 2.828 1.703 4.592 4.592 0 0 1 1.163 3.185 5.16 5.16 0 0 1-.573 2.497v.003zM5.19 35.059a1.892 1.892 0 1 1-3.784.005 1.892 1.892 0 0 1 3.784-.005zm12.207 0a1.892 1.892 0 1 1-3.783.092 1.892 1.892 0 0 1 3.783-.092zm12.23 0a1.892 1.892 0 1 1-3.783.092 1.892 1.892 0 0 1 3.783-.092zm12.22 0a1.892 1.892 0 1 1-3.784.005 1.892 1.892 0 0 1 3.784-.005zm12.22 0a1.892 1.892 0 1 1-3.784.005 1.892 1.892 0 0 1 3.784-.005zm12.217 0a1.892 1.892 0 1 1-3.783.092 1.892 1.892 0 0 1 3.783-.092zm12.22 0a1.892 1.892 0 1 1-3.784.005 1.892 1.892 0 0 1 3.784-.005zm24.437 0a1.892 1.892 0 1 1-3.783.092 1.892 1.892 0 0 1 3.783-.092zm-12.22 0a1.89 1.89 0 1 1-3.778.123 1.89 1.89 0 0 1 3.778-.123z" fill="#AABBC1" fill-rule="nonzero"/></svg>