<svg xmlns="http://www.w3.org/2000/svg" width="97" height="26" viewBox="0 0 97 26"><path d="M11.866.848H4.377a1.03 1.03 0 0 0-1.028.846L.32 20.207c-.06.365.234.694.618.694h3.575a1.03 1.03 0 0 0 1.028-.847l.817-4.993c.08-.49.516-.848 1.027-.848h2.371c4.933 0 7.78-2.301 8.524-6.862.335-1.995.014-3.562-.955-4.66C16.261 1.485 14.373.848 11.866.848zm.864 6.761c-.41 2.59-2.462 2.59-4.448 2.59h-1.13l.793-4.837a.617.617 0 0 1 .616-.508h.518c1.353 0 2.628 0 3.288.743.393.443.513 1.102.363 2.012zm21.522-.083h-3.586a.618.618 0 0 0-.617.507L29.89 9l-.25-.35c-.777-1.086-2.508-1.45-4.236-1.45-3.963 0-7.348 2.894-8.007 6.953-.342 2.024.145 3.96 1.336 5.31 1.093 1.242 2.657 1.76 4.517 1.76 3.193 0 4.964-1.98 4.964-1.98l-.16.96a.609.609 0 0 0 .615.697h3.23a1.03 1.03 0 0 0 1.029-.847L34.866 8.22c.062-.364-.23-.694-.614-.694zm-4.999 6.728c-.346 1.975-1.972 3.301-4.046 3.301-1.041 0-1.874-.322-2.408-.932-.53-.606-.731-1.468-.563-2.43.323-1.957 1.977-3.326 4.019-3.326 1.018 0 1.846.326 2.391.941.547.622.764 1.49.607 2.446zm24.098-6.728h-3.603c-.344 0-.667.164-.862.44l-4.97 7.058-2.107-6.783a1.04 1.04 0 0 0-.999-.715h-3.54c-.43 0-.73.405-.593.796l3.97 11.23-3.732 5.078c-.294.4.002.95.51.95h3.598c.342 0 .662-.16.856-.43L53.864 8.47c.287-.399-.008-.944-.513-.944zM65.283.848h-7.49a1.03 1.03 0 0 0-1.027.846l-3.03 18.513c-.06.365.234.694.616.694h3.844a.72.72 0 0 0 .718-.593l.86-5.247c.079-.49.516-.848 1.027-.848h2.37c4.934 0 7.78-2.301 8.524-6.862.337-1.995.013-3.562-.956-4.66C69.676 1.485 67.79.848 65.283.848zm.864 6.761c-.409 2.59-2.462 2.59-4.448 2.59h-1.13l.795-4.837a.615.615 0 0 1 .615-.508h.518c1.351 0 2.628 0 3.287.743.393.443.513 1.102.363 2.012zm21.52-.083h-3.584a.615.615 0 0 0-.615.507L83.309 9l-.252-.35c-.776-1.086-2.506-1.45-4.234-1.45-3.963 0-7.347 2.894-8.006 6.953-.342 2.024.144 3.96 1.335 5.31 1.095 1.242 2.657 1.76 4.517 1.76 3.193 0 4.964-1.98 4.964-1.98l-.16.96a.61.61 0 0 0 .617.697h3.23a1.03 1.03 0 0 0 1.027-.847l1.94-11.833c.058-.364-.235-.694-.62-.694zm-4.998 6.728c-.344 1.975-1.973 3.301-4.047 3.301-1.039 0-1.873-.322-2.407-.932-.53-.606-.73-1.468-.563-2.43.325-1.957 1.976-3.326 4.018-3.326 1.019 0 1.847.326 2.392.941.549.622.765 1.49.607 2.446zm9.226-12.898l-3.073 18.85c-.06.366.233.695.615.695h3.09c.514 0 .95-.359 1.028-.847l3.031-18.512c.06-.365-.233-.695-.615-.695h-3.46a.619.619 0 0 0-.616.509z" fill="#AABBC1"/></svg>