<svg xmlns="http://www.w3.org/2000/svg" width="115" height="25" viewBox="0 0 115 25"><path d="M18.329 1.037v13.202c0 4.409-1.948 6.24-6.515 6.24-4.568 0-6.516-1.831-6.516-6.24V.459h-4.4c-.384 0-.576.192-.576.578v13.419c0 7.372 4.688 9.95 11.492 9.95 6.803 0 11.491-2.578 11.491-9.95V.458h-4.4c-.384 0-.576.193-.576.579M82.107 4.29c.36 0 .529-.121.649-.387L84.03.747c.072-.192 0-.289-.192-.289H66.119c-1.659 0-2.284.506-2.284 1.639v20.502c0 .964.48 1.397 1.755 1.397h16.517c.36 0 .529-.12.649-.385l1.274-3.156c.072-.193 0-.29-.192-.29H68.716v-4.167c0-1.446.793-2.097 2.932-2.097h6.564c.36 0 .529-.12.65-.385l1.225-3.035c.072-.193 0-.29-.192-.29h-11.18V4.29h13.392M46.3 20.214h-8.682v-4.313c0-1.445.793-2.096 2.933-2.096h5.748c2.765 0 3.534 1.06 3.534 3.229 0 2.168-.77 3.18-3.534 3.18zM37.617 4.241h7.767c2.597 0 3.318.98 3.318 3.011 0 2.032-.721 3.012-3.318 3.012h-7.767V4.241zm13.297 7.348c1.923-1.012 2.716-2.915 2.716-5.156 0-5.204-4.23-5.975-8.606-5.975h-10c-1.66 0-2.284.506-2.284 1.639v20.502c0 .964.48 1.397 1.755 1.397h12.309c4.64 0 7.957-1.807 7.957-6.505 0-2.818-1.202-5.204-3.846-5.902zm54.644-.217h-8.174v-7.13h8.174c3.053 0 3.726 1.18 3.726 3.564 0 2.41-.673 3.566-3.726 3.566zm9.184 12.215l-5.265-9.059c2.62-.674 4.736-2.409 4.736-6.818 0-5.71-3.535-7.252-9.377-7.252H94.787c-1.658 0-2.284.506-2.284 1.639v21.321c0 .385.193.578.577.578h4.304V17.13c0-1.445.793-2.096 2.933-2.096h4.327l4.76 8.577c.145.24.289.385.65.385h4.471c.313 0 .313-.265.217-.41z" fill="#AABBC1"/></svg>